<?xml version="1.0" encoding="utf-8"?>
<!-- Generator: Adobe Illustrator 16.0.0, SVG Export Plug-In . SVG Version: 6.00 Build 0)  -->
<!DOCTYPE svg PUBLIC "-//W3C//DTD SVG 1.1//EN" "http://www.w3.org/Graphics/SVG/1.1/DTD/svg11.dtd">
<svg version="1.1" id="Layer_1" xmlns="http://www.w3.org/2000/svg" xmlns:xlink="http://www.w3.org/1999/xlink" x="0px" y="0px"
	 width="150px" height="150px" viewBox="0 0 150 150" enable-background="new 0 0 150 150" xml:space="preserve">
<path fill="none" stroke="#010101" stroke-width="5" stroke-miterlimit="10" d="M17.145,52.475"/>
<path fill="none" stroke="#43B9EA" stroke-width="5" stroke-miterlimit="10" d="M129.105,47.996l2.771,1.459
	c7.569,3.907,11.377,7.955,11.377,14.04v55.347c0,6.084-4.934,11.018-11.02,11.018H17.145c-6.085,0-11.02-4.934-11.02-11.018V63.495
	c0-6.085,4.867-9.736,11.02-13.064l5.981-3.247"/>
<path fill="none" stroke="#010101" stroke-width="5" stroke-miterlimit="10" d="M140.039,48.439"/>
<path fill="none" stroke="#010101" stroke-width="5" stroke-miterlimit="10" d="M14.543,50.276"/>
<path fill="none" stroke="#43B9EA" stroke-width="5" stroke-miterlimit="10" d="M6.433,121.42c1.835-4.264,6.306-6.462,10.712-8.846
	l48.004-26.171c0,0,8.877-5.509,18.672,0l48.056,25.196c5.672,2.927,9.232,5.935,10.662,9.82"/>
<path fill="none" stroke="#43B9EA" stroke-width="5" stroke-miterlimit="10" d="M23.126,80.785V27.654
	c0-4.254,3.449-7.704,7.705-7.704h90.568c4.254,0,7.704,3.45,7.704,7.704V79.51"/>
<polyline fill="none" stroke="#43B9EA" stroke-width="5" stroke-miterlimit="10" points="46.156,70.121 57.558,54.817 
	57.558,54.817 80.59,48.389 96.938,70.121 107.22,44.312 "/>
<path fill="none" stroke="#010101" stroke-width="5" stroke-miterlimit="10" d="M86.61,43.25"/>
<line fill="none" stroke="#43B9EA" stroke-width="5" stroke-miterlimit="10" x1="6.125" y1="69.792" x2="46.835" y2="96.115"/>
<line fill="none" stroke="#43B9EA" stroke-width="5" stroke-miterlimit="10" x1="144.131" y1="69.792" x2="103.422" y2="96.115"/>
<polygon fill="#43B9EA" points="110.519,34.971 99.271,48.439 110.519,52.475 "/>
<circle fill="#43B9EA" cx="46.156" cy="70.121" r="5.981"/>
<circle fill="#43B9EA" cx="58.118" cy="54.135" r="5.981"/>
<circle fill="#43B9EA" cx="96.919" cy="69.792" r="5.981"/>
<circle fill="#43B9EA" cx="80.468" cy="48.438" r="5.982"/>
</svg>
