<?xml version="1.0" encoding="utf-8"?>
<!-- Generator: Adobe Illustrator 16.0.0, SVG Export Plug-In . SVG Version: 6.00 Build 0)  -->
<!DOCTYPE svg PUBLIC "-//W3C//DTD SVG 1.1//EN" "http://www.w3.org/Graphics/SVG/1.1/DTD/svg11.dtd">
<svg version="1.1" id="Layer_1" xmlns="http://www.w3.org/2000/svg" xmlns:xlink="http://www.w3.org/1999/xlink" x="0px" y="0px"
	 width="150px" height="150px" viewBox="0 0 150 150" enable-background="new 0 0 150 150" xml:space="preserve">
<path fill-rule="evenodd" clip-rule="evenodd" fill="none" stroke="#DB89BA" stroke-width="5" stroke-miterlimit="10" d="
	M120.166,79.139c0,31.996-19.725,57.935-44.058,57.935c-24.334,0-44.059-25.938-44.059-57.935c0-36.153,19.725-57.935,44.059-57.935
	C100.441,21.204,120.166,41.905,120.166,79.139z"/>
<path fill="none" stroke="#DB89BA" stroke-width="5" stroke-miterlimit="10" d="M26.678,61.68
	c2.086-27.428,23.42-48.987,49.431-48.987c26.174,0,47.612,21.833,49.467,49.508"/>
<path fill-rule="evenodd" clip-rule="evenodd" fill="none" stroke="#DB89BA" stroke-width="5" stroke-miterlimit="10" d="
	M123.834,97.059c0,0,0.236,12.746-15.857,19.146c0,0-4.748,2.698-19.565,2.434"/>
<ellipse fill-rule="evenodd" clip-rule="evenodd" fill="none" stroke="#DB89BA" stroke-width="5" stroke-miterlimit="10" cx="77.821" cy="119.936" rx="12.081" ry="8.723"/>
<path fill-rule="evenodd" clip-rule="evenodd" fill="none" stroke="#DB89BA" stroke-width="5" stroke-miterlimit="10" d="
	M15.41,70.322c-0.519-0.196-1.088-0.305-1.687-0.305l0,0c-2.391,0-4.328,1.735-4.328,3.876v10.477c0,2.141,1.938,3.877,4.328,3.877
	l0,0c0.536,0,1.049-0.087,1.522-0.246"/>
<path fill-rule="evenodd" clip-rule="evenodd" fill="none" stroke="#DB89BA" stroke-width="5" stroke-miterlimit="10" d="
	M15.245,90.265c0,4.347,3.253,7.87,7.267,7.87l0,0c5.912,0,7.267-1.076,7.267-7.87V70.008c0-6.068-0.774-7.871-7.267-7.871l0,0
	c-4.014,0-7.267,3.524-7.267,7.871V90.265z"/>
<path fill-rule="evenodd" clip-rule="evenodd" fill="none" stroke="#DB89BA" stroke-width="5" stroke-miterlimit="10" d="
	M136.22,70.018L136.22,70.018c2.392,0,4.329,1.735,4.329,3.876v10.477c0,2.141-1.938,3.877-4.329,3.877l0,0
	c-0.537,0-1.051-0.088-1.525-0.248"/>
<path fill-rule="evenodd" clip-rule="evenodd" fill="none" stroke="#DB89BA" stroke-width="5" stroke-miterlimit="10" d="
	M134.699,90.265c0,4.347-3.253,7.87-7.267,7.87l0,0c-5.912,0-7.267-1.076-7.267-7.87V70.008c0-6.068,0.773-7.871,7.267-7.871l0,0
	c4.014,0,7.267,3.524,7.267,7.871V90.265z"/>
</svg>
