<?xml version="1.0" encoding="utf-8"?>
<!-- Generator: Adobe Illustrator 17.1.0, SVG Export Plug-In . SVG Version: 6.00 Build 0)  -->
<!DOCTYPE svg PUBLIC "-//W3C//DTD SVG 1.1//EN" "http://www.w3.org/Graphics/SVG/1.1/DTD/svg11.dtd">
<svg version="1.1" id="Layer_1" xmlns="http://www.w3.org/2000/svg" xmlns:xlink="http://www.w3.org/1999/xlink" x="0px" y="0px"
	 viewBox="0 0 80.3 72" enable-background="new 0 0 80.3 72" xml:space="preserve">
<g>
	<g>
		<path fill="#AAAAAA" d="M66.7,0H5.3C2.4,0,0,2.3,0,5.2v61.6C0,69.7,2.4,72,5.3,72h61.4c2.9,0,5.3-2.3,5.3-5.2V5.2
			C72,2.3,69.6,0,66.7,0z M21.4,61.4H10.7V27h10.7V61.4z M16,22.3c-3.4,0-6.2-2.8-6.2-6.2c0-3.4,2.8-6.2,6.2-6.2
			c3.4,0,6.2,2.8,6.2,6.2C22.2,19.5,19.4,22.3,16,22.3z M61.4,61.4H50.7V44.6c0-4-0.1-9.1-5.5-9.1c-5.6,0-6.4,4.3-6.4,8.8v17H28.1
			V27h10.2v4.7h0.1c1.4-2.7,4.9-5.5,10.1-5.5c10.8,0,12.8,7.1,12.8,16.4V61.4z"/>
	</g>
	<g>
		<path fill="#AAAAAA" d="M77.3,59h-0.5v-1.1h0.7c0.3,0,0.7,0.1,0.7,0.5C78.2,59,77.8,59,77.3,59z M77.8,59.3
			c0.5-0.1,0.8-0.4,0.8-0.8c0-0.6-0.4-0.9-1.1-0.9h-1.2v3.1h0.5v-1.4h0.6l0,0l0.9,1.4h0.5L77.8,59.3L77.8,59.3z"/>
		<path fill="#AAAAAA" d="M77.3,61.7c-1.4,0-2.5-1.1-2.5-2.6c0-1.5,1.1-2.6,2.5-2.6c1.4,0,2.5,1.1,2.5,2.6
			C79.9,60.6,78.8,61.7,77.3,61.7z M77.3,56.2c-1.7,0-3,1.3-3,3c0,1.7,1.3,3,3,3s3-1.3,3-3C80.3,57.5,79,56.2,77.3,56.2z"/>
	</g>
</g>
</svg>
