<?xml version="1.0" encoding="utf-8"?>
<!-- Generator: Adobe Illustrator 16.0.0, SVG Export Plug-In . SVG Version: 6.00 Build 0)  -->
<!DOCTYPE svg PUBLIC "-//W3C//DTD SVG 1.1//EN" "http://www.w3.org/Graphics/SVG/1.1/DTD/svg11.dtd">
<svg version="1.1" id="Layer_1" xmlns="http://www.w3.org/2000/svg" xmlns:xlink="http://www.w3.org/1999/xlink" x="0px" y="0px"
	 width="150px" height="150px" viewBox="0 0 150 150" enable-background="new 0 0 150 150" xml:space="preserve">
<circle fill="none" stroke="#42A1E2" stroke-width="5" stroke-miterlimit="10" cx="74.823" cy="75.595" r="40.865"/>
<circle fill="none" stroke="#42A1E2" stroke-width="5" stroke-miterlimit="10" cx="74.823" cy="75.595" r="40.865"/>
<circle fill="none" stroke="#42A1E2" stroke-width="5" stroke-miterlimit="10" cx="74.824" cy="75.595" r="3.918"/>
<circle fill="none" stroke="#42A1E2" stroke-width="12" stroke-miterlimit="10" cx="74.823" cy="75.595" r="8.612"/>
<line fill="none" stroke="#42A1E2" stroke-width="2" stroke-miterlimit="10" x1="74.823" y1="34.731" x2="74.823" y2="116.46"/>
<line fill="none" stroke="#42A1E2" stroke-width="2" stroke-miterlimit="10" x1="103.719" y1="46.7" x2="45.928" y2="104.49"/>
<line fill="none" stroke="#42A1E2" stroke-width="2" stroke-miterlimit="10" x1="33.958" y1="75.595" x2="115.688" y2="75.595"/>
<line fill="none" stroke="#42A1E2" stroke-width="2" stroke-miterlimit="10" x1="45.928" y1="46.7" x2="103.719" y2="104.49"/>
<path fill="#42A1E2" d="M79.103,30.25c0,0.646-0.522,1.168-1.166,1.168h-6.228c-0.646,0-1.168-0.521-1.168-1.168l-1.167-16.347
	c0-0.646,0.437-1.618,1.167-2.335c0,0,2.554-2.823,3.212-3.503c0.657-0.681,1.27-0.694,1.944,0c0.675,0.695,3.405,3.503,3.405,3.503
	c0.779,0.899,1.17,1.689,1.17,2.335L79.103,30.25z"/>
<path fill="#42A1E2" d="M45.586,40.302c0.457,0.458,0.456,1.197,0.002,1.652l-4.405,4.403c-0.457,0.456-1.195,0.456-1.651,0
	L27.147,35.624c-0.457-0.456-0.836-1.454-0.825-2.477c0,0-0.191-3.802-0.207-4.748c-0.018-0.946,0.406-1.389,1.375-1.374
	c0.968,0.014,4.886,0.068,4.886,0.068c1.186,0.085,2.02,0.368,2.476,0.824L45.586,40.302z"/>
<path fill="#42A1E2" d="M104.122,40.971c-0.457,0.459-0.454,1.196-0.002,1.651l4.404,4.403c0.458,0.456,1.195,0.456,1.652,0
	l12.384-10.733c0.458-0.456,0.836-1.454,0.826-2.477c0,0,0.19-3.802,0.206-4.747c0.017-0.947-0.405-1.39-1.374-1.375
	c-0.97,0.014-4.887,0.068-4.887,0.068c-1.186,0.085-2.021,0.368-2.478,0.824L104.122,40.971z"/>
<path fill="#42A1E2" d="M79.103,120.811c0-0.646-0.522-1.168-1.166-1.168h-6.228c-0.646,0-1.168,0.521-1.168,1.168l-1.167,16.347
	c0,0.646,0.437,1.618,1.167,2.335c0,0,2.554,2.823,3.212,3.503c0.657,0.681,1.27,0.694,1.944,0c0.675-0.695,3.405-3.503,3.405-3.503
	c0.779-0.899,1.17-1.689,1.17-2.335L79.103,120.811z"/>
<path fill="#42A1E2" d="M45.624,110.289c0.457-0.459,0.455-1.196,0.001-1.651l-4.405-4.403c-0.457-0.457-1.195-0.457-1.651,0
	l-12.384,10.732c-0.457,0.457-0.836,1.455-0.825,2.478c0,0-0.191,3.801-0.207,4.747c-0.017,0.947,0.406,1.389,1.375,1.375
	c0.968-0.014,4.886-0.068,4.886-0.068c1.186-0.085,2.02-0.368,2.477-0.825L45.624,110.289z"/>
<path fill="#42A1E2" d="M104.041,110.308c-0.457-0.459-0.454-1.196-0.001-1.651l4.405-4.403c0.456-0.457,1.194-0.457,1.65,0
	l12.384,10.732c0.458,0.457,0.836,1.455,0.826,2.478c0,0,0.19,3.801,0.207,4.747c0.016,0.947-0.406,1.389-1.375,1.375
	c-0.968-0.014-4.887-0.068-4.887-0.068c-1.186-0.086-2.021-0.368-2.478-0.825L104.041,110.308z"/>
<path fill="#42A1E2" d="M29.439,71.313c0.645,0,1.168,0.524,1.168,1.169v6.227c0,0.645-0.523,1.167-1.168,1.167l-16.348,1.168
	c-0.645,0-1.619-0.437-2.335-1.168c0,0-2.821-2.555-3.502-3.21c-0.681-0.657-0.694-1.271,0-1.947
	c0.695-0.674,3.502-3.405,3.502-3.405c0.901-0.778,1.69-1.166,2.335-1.166L29.439,71.313z"/>
<path fill="#42A1E2" d="M120.443,79.876c-0.645,0-1.167-0.523-1.167-1.167v-6.227c0-0.647,0.522-1.169,1.167-1.169l16.348-1.166
	c0.646,0,1.619,0.437,2.335,1.166c0,0,2.821,2.555,3.505,3.212c0.679,0.656,0.693,1.271,0,1.945
	c-0.695,0.676-3.505,3.405-3.505,3.405c-0.9,0.78-1.689,1.168-2.335,1.168L120.443,79.876z"/>
</svg>
