<?xml version="1.0" encoding="utf-8"?>
<!-- Generator: Adobe Illustrator 16.0.0, SVG Export Plug-In . SVG Version: 6.00 Build 0)  -->
<!DOCTYPE svg PUBLIC "-//W3C//DTD SVG 1.1//EN" "http://www.w3.org/Graphics/SVG/1.1/DTD/svg11.dtd">
<svg version="1.1" id="Layer_1" xmlns="http://www.w3.org/2000/svg" xmlns:xlink="http://www.w3.org/1999/xlink" x="0px" y="0px"
	 width="150px" height="150px" viewBox="0 0 150 150" enable-background="new 0 0 150 150" xml:space="preserve">
<path fill="none" stroke="#AF46FF" stroke-width="5" stroke-miterlimit="10" d="M43.276,87.258c0,0,7.382-10.664,7.91-23.293
	c0,0,0.791-11.574,2.638-16.321c0,0,1.318-3.428,1.582-8.438c0,0,0.403-1.98-2.682-3.428c0,0-3.382-1.45-7.469,0
	c0,0-11.338,2.308-14.106,3.756c0,0-5.537,1.648-2.57-5.142c0,0,12.923-21.423,36.026-22.544c0,0,15.062-1.779,22.247,10.679
	c0,0,10.941,23.929,13.579,39.156c0,0,3.492,19.645,4.943,23.271c0,0,1.847,4.745,7.053,5.801c0,0,12.46,1.78,20.238,5.47
	c0,0,14.305,5.8,10.481,14.898c0,0-2.638,6.525-23.205,11.996c0,0-78.63,15.786-110.894-10.784c0,0-10.727-10.244,1.6-16.77
	c0,0,10.713-4.5,23.599-6.538C34.246,89.029,40.771,88.533,43.276,87.258z"/>
<polygon fill="#AF46FF" points="82.709,39.139 78.142,36.903 73.71,39.397 74.426,34.362 70.686,30.918 75.693,30.043 
	77.812,25.421 80.194,29.914 85.246,30.5 81.706,34.153 "/>
<polygon fill="#AF46FF" points="101.842,70.172 98.525,70.313 96.759,73.126 95.599,70.014 92.38,69.205 94.979,67.141 
	94.756,63.828 97.522,65.664 100.603,64.425 99.712,67.625 "/>
<polygon fill="#AF46FF" points="69.53,65.44 65.024,61.674 59.363,63.25 61.553,57.798 58.304,52.903 64.167,53.302 67.817,48.697 
	69.25,54.397 74.757,56.447 69.779,59.571 "/>
<path fill="#AF46FF" d="M92.662,54.938c0,0-4.711,5.065-9.796,1.134c0,0-4.255-4.098,2.55-10.148
	C85.416,45.924,81.3,56.335,92.662,54.938z"/>
<path fill="#AF46FF" d="M40.445,31.373c0,0-2.01-3.519,1.077-5.678c0,0,3.037-1.663,5.232,3.202
	C46.753,28.896,41.649,24.774,40.445,31.373z"/>
<path fill="#AF46FF" d="M60.139,74.745c0,0,6.548,1.841,5.401,8.058c0,0-1.671,5.568-10.029,2.335
	C55.511,85.14,66.473,84.056,60.139,74.745z"/>
<path fill="none" stroke="#AF46FF" stroke-width="5" stroke-miterlimit="10" d="M43.276,86.808c0,0,28.869,19.165,62.096-1.853"/>
<path fill="none" stroke="#AF46FF" stroke-width="5" stroke-miterlimit="10" d="M30.162,88.832c0,0,35.551,30.668,82.321,1.307"/>
<polygon fill="#AF46FF" points="85.261,86.979 81.742,84.039 77.326,85.27 79.035,81.015 76.5,77.197 81.074,77.509 83.924,73.915 
	85.042,78.362 89.338,79.962 85.452,82.399 "/>
<polygon fill="#AF46FF" points="62.593,28.595 59.363,27.013 56.229,28.777 56.734,25.216 54.089,22.781 57.631,22.162 
	59.13,18.891 60.814,22.069 64.386,22.486 61.884,25.068 "/>
</svg>
