<?xml version="1.0" encoding="utf-8"?>
<!-- Generator: Adobe Illustrator 16.0.0, SVG Export Plug-In . SVG Version: 6.00 Build 0)  -->
<!DOCTYPE svg PUBLIC "-//W3C//DTD SVG 1.1//EN" "http://www.w3.org/Graphics/SVG/1.1/DTD/svg11.dtd">
<svg version="1.1" id="Layer_1" xmlns="http://www.w3.org/2000/svg" xmlns:xlink="http://www.w3.org/1999/xlink" x="0px" y="0px"
	 width="150px" height="150px" viewBox="0 0 150 150" enable-background="new 0 0 150 150" xml:space="preserve">
<path fill="none" stroke="#FDB515" stroke-width="5" stroke-miterlimit="10" d="M135.378,105.447
	c-0.778,38.039-34.281,37.656-59.884,37.656c-25.604,0-60.34-1.705-60.34-37.883c0-17.079,17.096-37.923,36.176-48.575
	c7.792-4.35,7.613,4.061,23.94,4.541c14.518,0.427,15.77-8.711,24.054-4.077C118.481,67.828,135.731,88.186,135.378,105.447z"/>
<path fill="none" stroke="#FDB515" stroke-width="5" stroke-miterlimit="10" d="M55.632,40.85c0,0-4.311-11.57-6.352-14.518
	c-2.042-2.949,0.755-10.313,6.125-9.833c5.414,0.485,4.537,2.155,6.805,2.805c1.996,0.571,4.764-0.231,5.672-4.768
	c0.906-4.538,5.831-9.676,11.376-4.433c3.123,2.952,2.688,3.751,3.595,6.474c0.908,2.722,3.63,1.588,6.352,0
	c2.722-1.588,10.436-4.763,9.98,1.815c-0.454,6.579-4.676,12.335-5.443,14.518c-1.247,3.551-1.249,7.353-1.362,11.795
	c-0.075,2.982-3.175,6.411-10.66,6.638c-7.486,0.227-18.375,1.336-23.365-5.05C56.299,43.664,55.632,40.85,55.632,40.85z"/>
<text transform="matrix(1.1274 0 0 1 57.9946 121.8086)" fill="#FDB515" font-family="'ArialMT'" font-size="57.6101">$</text>
<path fill="none" stroke="#FDB515" stroke-width="5" stroke-miterlimit="10" d="M92.188,51.281c0,0,6.119-8.815,16.875-6.357"/>
<path fill="none" stroke="#FDB515" stroke-width="5" stroke-miterlimit="10" d="M94.104,53.233c0,0,7.884-6.399,19.679,2.675"/>
</svg>
