<?xml version="1.0" encoding="utf-8"?>
<!-- Generator: Adobe Illustrator 16.0.0, SVG Export Plug-In . SVG Version: 6.00 Build 0)  -->
<!DOCTYPE svg PUBLIC "-//W3C//DTD SVG 1.1//EN" "http://www.w3.org/Graphics/SVG/1.1/DTD/svg11.dtd">
<svg version="1.1" id="Layer_1" xmlns="http://www.w3.org/2000/svg" xmlns:xlink="http://www.w3.org/1999/xlink" x="0px" y="0px"
	 width="150px" height="150px" viewBox="0 0 150 150" enable-background="new 0 0 150 150" xml:space="preserve">
<path fill="none" stroke="#757AD1" stroke-width="5" stroke-miterlimit="10" d="M112.189,132.582c0,2.784-2.252,5.037-5.037,5.037
	H80.781c-2.785,0-5.038-2.253-5.038-5.037V18.764c0-2.784,2.252-5.038,5.038-5.038h26.371c2.785,0,5.037,2.254,5.037,5.038V132.582z
	"/>
<path fill="none" stroke="#757AD1" stroke-width="5" stroke-miterlimit="10" d="M75.744,132.582c0,2.784-2.256,5.037-5.037,5.037
	H51.55c-2.782,0-5.038-2.253-5.038-5.037V43.956c0-2.78,2.255-5.038,5.038-5.038h19.157c2.781,0,5.037,2.258,5.037,5.038V132.582z"
	/>
<path fill="none" stroke="#757AD1" stroke-width="5" stroke-miterlimit="10" d="M46.512,132.582c0,2.784-2.256,5.037-5.038,5.037
	h-18.89c-2.782,0-5.037-2.253-5.037-5.037v-31.141c0-2.778,2.255-5.036,5.037-5.036h18.89c2.782,0,5.038,2.258,5.038,5.036V132.582z
	"/>
<path fill="none" stroke="#757AD1" stroke-width="5" stroke-miterlimit="10" d="M132.569,132.582c0,2.784-2.255,5.037-5.038,5.037
	h-10.304c-2.781,0-5.038-2.253-5.038-5.037V108.64c0-2.78,2.257-5.039,5.038-5.039h10.304c2.783,0,5.038,2.259,5.038,5.039V132.582z
	"/>
<rect x="85.553" y="24.721" fill="#757AD1" width="5.879" height="13.401"/>
<rect x="85.553" y="66.771" fill="#757AD1" width="5.879" height="13.4"/>
<rect x="85.553" y="45.595" fill="#757AD1" width="5.879" height="13.399"/>
<rect x="85.553" y="89.76" fill="#757AD1" width="5.879" height="13.398"/>
<rect x="97.726" y="66.771" fill="#757AD1" width="5.878" height="13.4"/>
<rect x="97.726" y="45.595" fill="#757AD1" width="5.878" height="13.399"/>
<rect x="97.726" y="24.721" fill="#757AD1" width="5.878" height="13.401"/>
<rect x="56.169" y="51.934" fill="#757AD1" width="4.959" height="61.34"/>
<rect x="25.104" y="105.142" fill="#757AD1" width="14.694" height="3.512"/>
<rect x="25.104" y="112.112" fill="#757AD1" width="14.694" height="5.673"/>
<rect x="97.726" y="89.706" fill="#757AD1" width="5.878" height="13.398"/>
<rect x="85.553" y="115.375" fill="#757AD1" width="5.879" height="13.398"/>
<rect x="97.726" y="115.32" fill="#757AD1" width="5.878" height="13.398"/>
</svg>
