<?xml version="1.0" encoding="utf-8"?>
<!-- Generator: Adobe Illustrator 16.0.0, SVG Export Plug-In . SVG Version: 6.00 Build 0)  -->
<!DOCTYPE svg PUBLIC "-//W3C//DTD SVG 1.1//EN" "http://www.w3.org/Graphics/SVG/1.1/DTD/svg11.dtd">
<svg version="1.1" id="Layer_1" xmlns="http://www.w3.org/2000/svg" xmlns:xlink="http://www.w3.org/1999/xlink" x="0px" y="0px"
	 width="150px" height="150px" viewBox="0 0 150 150" enable-background="new 0 0 150 150" xml:space="preserve">
<path fill="none" stroke="#000000" stroke-width="5" stroke-miterlimit="10" d="M67.269,5.786"/>
<path fill="none" stroke="#83B541" stroke-width="5" stroke-miterlimit="10" d="M105.275,53.105
	c0.938,3.707,1.437,7.589,1.437,11.588c0,25.999-21.075,47.075-47.074,47.075c-25.999,0-47.075-21.076-47.075-47.075
	c0-21.816,14.839-40.164,34.973-45.504l12.102,46.29L105.275,53.105z"/>
<path fill="none" stroke="#83B541" stroke-width="5" stroke-miterlimit="10" d="M112.13,42.57
	C106.967,22.174,88.492,7.083,66.493,7.083c-4.184,0-8.241,0.545-12.102,1.57l12.119,45.98L112.13,42.57z"/>
<path fill="none" stroke="#83B541" stroke-width="5" stroke-miterlimit="10" d="M104.557,103.312
	c0.49,0.471,0.379,1.381-0.247,2.034l-5.8,6.054c-0.627,0.654-1.531,0.804-2.021,0.334l-7.491-7.176
	c-0.49-0.47-0.379-1.381,0.248-2.035l5.799-6.053c0.626-0.654,1.532-0.804,2.021-0.334L104.557,103.312z"/>
<path fill="none" stroke="#83B541" stroke-width="5" stroke-miterlimit="10" d="M137.778,126.254
	c0.771,0.738,0.895,1.858,0.277,2.503l-14.65,15.292c-0.617,0.645-1.742,0.568-2.513-0.17l-26.5-25.388
	c-0.77-0.738-0.895-1.858-0.277-2.503l14.649-15.293c0.618-0.643,1.742-0.568,2.513,0.17L137.778,126.254z"/>
</svg>
