<?xml version="1.0" encoding="utf-8"?>
<!-- Generator: Adobe Illustrator 16.0.0, SVG Export Plug-In . SVG Version: 6.00 Build 0)  -->
<!DOCTYPE svg PUBLIC "-//W3C//DTD SVG 1.1//EN" "http://www.w3.org/Graphics/SVG/1.1/DTD/svg11.dtd">
<svg version="1.1" id="Layer_1" xmlns="http://www.w3.org/2000/svg" xmlns:xlink="http://www.w3.org/1999/xlink" x="0px" y="0px"
	 width="150px" height="150px" viewBox="0 0 150 150" enable-background="new 0 0 150 150" xml:space="preserve">
<path fill="none" stroke="#00C6A0" stroke-width="5" stroke-miterlimit="10" d="M29.138,47.862
	c5.547-7.832,14.635-15.726,29.518-20.208c0,0,47.187-16.693,76.052,18.098c18.296,22.053,2.958,44.777-2.55,51.815
	c-5.508,7.036-6.12,20.808,0.307,30.598c6.427,9.793-19.585-7.954-23.256-9.484c-2.337-0.974-18.467,1.977-37.662-0.383"/>
<path fill="none" stroke="#00C6A0" stroke-width="5" stroke-miterlimit="10" d="M114.752,79.674c0,0-1.068-26.577-33.097-35.772
	c0,0-40.902-13.794-65.921,14.956c-15.858,18.225-2.564,37.002,2.209,42.818c4.774,5.816,5.305,17.196-0.264,25.285
	c-5.57,8.093,16.976-6.571,20.157-7.838c3.182-1.265,35.894,5.48,62.042-9.379C117.236,99.881,114.752,79.674,114.752,79.674z"/>
<path fill="none" stroke="#00C6A0" stroke-width="5" stroke-miterlimit="10" d="M66.188,72.746c0.586,0.027,1.002,0.062,1.419,0.062
	c3.707,0.004,7.413-0.035,11.119,0.015c1.898,0.025,3.614,0.584,4.379,2.551c0.681,1.748,0.214,3.353-0.955,4.758
	c-0.355,0.426-0.527,0.781-0.411,1.392c0.323,1.665-0.085,3.171-1.238,4.471c-0.216,0.245-0.362,0.711-0.295,1.022
	c0.389,1.783-0.12,3.276-1.237,4.662c-0.24,0.295-0.362,0.862-0.263,1.227c0.715,2.589-1.479,5.441-3.925,6.096
	c-0.997,0.269-2.064,0.369-3.102,0.378c-4.756,0.039-7.228,0.017-11.984,0.017c-2.353,0-7.146-0.699-7.177-0.371
	c-0.103,1.093-2.957,1.768-4.049,1.771c-4.69,0.014-4.184,0.014-8.875-0.008c-1.261-0.005-1.921-0.705-2.039-2.165
	c-0.229-2.87-0.396-5.747-0.622-8.616c-0.298-3.783-0.609-7.566-0.951-11.346c-0.127-1.407,0.624-2.354,2.061-2.357
	c5.15-0.017,5.109-0.148,10.25,0.076c1.606,0.07,2.411-0.544,3.105-1.615c1.69-2.61,3.245-5.309,4.951-7.908
	c1.037-1.578,1.032-3.255,0.904-5.006c-0.078-1.076-0.131-2.16-0.098-3.238c0.041-1.355,1.315-2.459,3.055-2.711
	c0.45-0.064,0.939-0.121,1.372-0.017c1.574,0.379,3.15,0.683,3.654,2.675c0.496,1.958,1.5,3.812,1.8,5.784
	c0.252,1.661-0.156,3.431-0.33,5.146C66.603,70.525,66.384,71.548,66.188,72.746z"/>
<path fill="#00C6A0" d="M46.759,88.592c0,2.285-0.007,4.568,0.005,6.852c0.003,0.536-0.057,0.778-0.335,0.774
	c-1.228-0.021-2.457-0.021-3.685-0.003c-0.297,0.004-0.379-0.262-0.401-0.854c-0.163-4.213-0.36-8.422-0.511-12.635
	c-0.081-2.252-0.072-1.814,0.767-1.831c1.25-0.024,2.501,0.01,3.753-0.018c0.311-0.007,0.416,0.213,0.411,0.866
	C46.75,84.025,46.758,86.308,46.759,88.592L46.759,88.592z"/>
</svg>
